<svg width="164" height="164" viewBox="0 0 164 164" fill="none" xmlns="http://www.w3.org/2000/svg">
<g clip-path="url(#clip0_809_2)">
<rect width="164" height="164" rx="20" fill="#9810FA"/>
<path d="M86.1116 81.1664L-94.3999 185.149C-91.4398 190.503 -86.947 194.977 -80.8667 198.498C-51.7326 215.38 46.0454 271.414 65.5681 282.938C78.6976 290.689 91.5171 290.966 104.743 283.326C153.788 254.995 202.897 226.782 251.964 198.481C258.044 194.961 262.537 190.484 265.497 185.135L86.1116 81.1664Z" fill="#6F1DAA"/>
<path d="M169.629 43.0184C169.628 39.8368 168.942 37.0254 167.556 34.6125L85.1079 81.7438L167.656 129.22C168.979 126.844 169.636 124.087 169.638 120.974C169.638 120.974 169.638 69.0088 169.629 43.0184Z" fill="#5B0D92" fill-opacity="0.98"/>
<path d="M86.0077 22C108.207 22 127.588 34.0545 137.969 51.9722L137.868 51.7998L111.75 66.8366C106.604 58.1248 97.17 52.2458 86.3486 52.1247L86.0077 52.1228C69.5054 52.1228 56.1265 65.4993 56.1265 81.9996C56.1265 87.3956 57.5653 92.4537 60.0674 96.8225C65.218 105.813 74.9006 111.877 86.0077 111.877C97.1835 111.877 106.921 105.736 112.046 96.6493L111.921 96.8674L138 111.973C127.733 129.74 108.617 141.757 86.6762 141.996L86.0077 142C63.739 142 44.3025 129.871 33.9475 111.859C28.8924 103.065 26 92.8708 26 81.9996C26 48.8632 52.8658 22 86.0077 22Z" fill="white"/>
</g>
<defs>
<clipPath id="clip0_809_2">
<rect width="164" height="164" rx="20" fill="white"/>
</clipPath>
</defs>
</svg>
